<svg xmlns="http://www.w3.org/2000/svg" version="1.1" xmlns:xlink="http://www.w3.org/1999/xlink" xmlns:svgjs="http://svgjs.dev/svgjs" width="1000" height="999" viewBox="0 0 1000 999"><g transform="matrix(1,0,0,1,-0.215743440233382,-0.21552769679306039)"><svg viewBox="0 0 343 343" data-background-color="#ffffff" preserveAspectRatio="xMidYMid meet" height="999" width="1000" xmlns="http://www.w3.org/2000/svg" xmlns:xlink="http://www.w3.org/1999/xlink"><g id="tight-bounds" transform="matrix(1,0,0,1,0.0740000000000407,0.07400000000001228)"><svg viewBox="0 0 342.85155851775386 342.85155851775386" height="342.85155851775386" width="342.85155851775386"><g><svg></svg></g><g><svg viewBox="0 0 342.85155851775386 342.85155851775386" height="342.85155851775386" width="342.85155851775386"><g><path d="M0 171.426c0-94.676 76.75-171.426 171.426-171.426 94.676 0 171.426 76.75 171.426 171.426 0 94.676-76.75 171.426-171.426 171.426-94.676 0-171.426-76.75-171.426-171.426zM171.426 340.598c93.431 0 169.172-75.741 169.172-169.172 0-93.431-75.741-169.172-169.172-169.172-93.431 0-169.172 75.741-169.172 169.172 0 93.431 75.741 169.172 169.172 169.172z" data-fill-palette-color="tertiary" fill="#233565" stroke="transparent"></path><ellipse rx="164.56874808852186" ry="164.56874808852186" cx="171.42577925887693" cy="171.42577925887693" fill="#233565" stroke="transparent" stroke-width="0" fill-opacity="1" data-fill-palette-color="tertiary"></ellipse></g><g transform="matrix(1,0,0,1,64.84655864529837,118.95991676402903)"><svg viewBox="0 0 213.1584412271571 104.93172498969581" height="104.93172498969581" width="213.1584412271571"><g><svg viewBox="0 0 213.1584412271571 104.93172498969581" height="104.93172498969581" width="213.1584412271571"><g><svg viewBox="0 0 213.15844122715714 104.93172498969582" height="104.93172498969581" width="213.1584412271571"><g transform="matrix(1,0,0,1,0,63.35655462740594)"><svg viewBox="0 0 213.15844122715714 41.57517036228988" height="41.57517036228988" width="213.15844122715714"><g id="textblocktransform"><svg viewBox="0 0 213.15844122715714 41.57517036228988" height="41.57517036228988" width="213.15844122715714" id="textblock"><g><svg viewBox="0 0 213.15844122715714 24.99055044443874" height="24.99055044443874" width="213.15844122715714"><g transform="matrix(1,0,0,1,0,0)"><svg width="213.15844122715714" viewBox="1.6800000667572021 -37.5 408.5299987792969 47.900001525878906" height="24.99055044443874" data-palette-color="#ffffff"><path d="M21.61-9.33L21.61-9.33Q21.61-11.4 20.14-12.51 18.68-13.62 14.87-14.86 11.06-16.09 8.84-17.29L8.84-17.29Q2.78-20.56 2.78-26.1L2.78-26.1Q2.78-28.98 4.41-31.24 6.03-33.5 9.07-34.77 12.11-36.04 15.89-36.04L15.89-36.04Q19.7-36.04 22.68-34.66 25.66-33.28 27.31-30.76 28.96-28.25 28.96-25.05L28.96-25.05 21.63-25.05Q21.63-27.49 20.09-28.85 18.55-30.2 15.77-30.2L15.77-30.2Q13.09-30.2 11.6-29.06 10.11-27.93 10.11-26.07L10.11-26.07Q10.11-24.34 11.85-23.17 13.6-22 16.99-20.97L16.99-20.97Q23.24-19.09 26.1-16.31 28.96-13.53 28.96-9.38L28.96-9.38Q28.96-4.76 25.46-2.14 21.97 0.49 16.06 0.49L16.06 0.49Q11.96 0.49 8.59-1.01 5.22-2.51 3.45-5.13 1.68-7.74 1.68-11.18L1.68-11.18 9.03-11.18Q9.03-5.3 16.06-5.3L16.06-5.3Q18.68-5.3 20.14-6.36 21.61-7.42 21.61-9.33ZM44.43-5.2L44.43-5.2Q46.38-5.2 47.6-6.27 48.83-7.35 48.87-9.13L48.87-9.13 55.49-9.13Q55.47-6.45 54.03-4.21 52.59-1.98 50.08-0.74 47.58 0.49 44.55 0.49L44.55 0.49Q38.89 0.49 35.62-3.11 32.35-6.71 32.35-13.06L32.35-13.06 32.35-13.53Q32.35-19.63 35.59-23.27 38.84-26.9 44.5-26.9L44.5-26.9Q49.46-26.9 52.45-24.08 55.44-21.26 55.49-16.58L55.49-16.58 48.87-16.58Q48.83-18.63 47.6-19.91 46.38-21.19 44.38-21.19L44.38-21.19Q41.92-21.19 40.66-19.4 39.4-17.6 39.4-13.57L39.4-13.57 39.4-12.84Q39.4-8.76 40.65-6.98 41.89-5.2 44.43-5.2ZM75.53 0L75.34-2.69Q72.72 0.49 68.11 0.49L68.11 0.49Q63.86 0.49 61.63-1.95 59.39-4.39 59.35-9.11L59.35-9.11 59.35-26.42 66.4-26.42 66.4-9.35Q66.4-5.22 70.16-5.22L70.16-5.22Q73.75-5.22 75.09-7.71L75.09-7.71 75.09-26.42 82.17-26.42 82.17 0 75.53 0ZM94.94-37.5L94.94 0 87.86 0 87.86-37.5 94.94-37.5ZM124.53-13.33L124.53-12.96Q124.53-6.86 121.76-3.19 118.98 0.49 114.27 0.49L114.27 0.49Q110.27 0.49 107.8-2.29L107.8-2.29 107.8 10.16 100.75 10.16 100.75-26.42 107.29-26.42 107.53-23.83Q110.1-26.9 114.22-26.9L114.22-26.9Q119.11-26.9 121.82-23.29 124.53-19.68 124.53-13.33L124.53-13.33ZM117.47-13.48L117.47-13.48Q117.47-17.16 116.16-19.17 114.86-21.17 112.37-21.17L112.37-21.17Q109.05-21.17 107.8-18.63L107.8-18.63 107.8-7.81Q109.1-5.2 112.42-5.2L112.42-5.2Q117.47-5.2 117.47-13.48ZM130.29-32.91L137.34-32.91 137.34-26.42 141.86-26.42 141.86-21.24 137.34-21.24 137.34-8.06Q137.34-6.59 137.9-5.96 138.46-5.32 140.05-5.32L140.05-5.32Q141.22-5.32 142.13-5.49L142.13-5.49 142.13-0.15Q140.05 0.49 137.85 0.49L137.85 0.49Q130.43 0.49 130.29-7.01L130.29-7.01 130.29-21.24 126.43-21.24 126.43-26.42 130.29-26.42 130.29-32.91ZM143.95-13.13L143.95-13.45Q143.95-17.38 145.47-20.46 146.98-23.54 149.83-25.22 152.67-26.9 156.43-26.9L156.43-26.9Q161.78-26.9 165.16-23.63 168.54-20.36 168.93-14.75L168.93-14.75 168.98-12.94Q168.98-6.86 165.59-3.19 162.19 0.49 156.48 0.49 150.77 0.49 147.36-3.17 143.95-6.84 143.95-13.13L143.95-13.13ZM151.01-12.94L151.01-12.94Q151.01-9.18 152.43-7.19 153.84-5.2 156.48-5.2L156.48-5.2Q159.04-5.2 160.48-7.17 161.92-9.13 161.92-13.45L161.92-13.45Q161.92-17.14 160.48-19.17 159.04-21.19 156.43-21.19L156.43-21.19Q153.84-21.19 152.43-19.18 151.01-17.16 151.01-12.94ZM188.26-26.59L188.17-19.8Q186.73-20 185.63-20L185.63-20Q181.62-20 180.38-17.29L180.38-17.29 180.38 0 173.32 0 173.32-26.42 179.99-26.42 180.18-23.27Q182.31-26.9 186.07-26.9L186.07-26.9Q187.24-26.9 188.26-26.59L188.26-26.59ZM225.05-11.84L232.37-11.84Q231.96-6.1 228.14-2.81 224.32 0.49 218.07 0.49L218.07 0.49Q211.23 0.49 207.31-4.11 203.4-8.72 203.4-16.75L203.4-16.75 203.4-18.92Q203.4-24.05 205.2-27.95 207.01-31.86 210.37-33.95 213.72-36.04 218.17-36.04L218.17-36.04Q224.32-36.04 228.08-32.74 231.84-29.44 232.42-23.49L232.42-23.49 225.1-23.49Q224.83-26.93 223.18-28.48 221.54-30.03 218.17-30.03L218.17-30.03Q214.5-30.03 212.69-27.4 210.87-24.78 210.82-19.26L210.82-19.26 210.82-16.58Q210.82-10.82 212.56-8.15 214.31-5.49 218.07-5.49L218.07-5.49Q221.46-5.49 223.13-7.04 224.81-8.59 225.05-11.84L225.05-11.84ZM235.62-13.13L235.62-13.45Q235.62-17.38 237.13-20.46 238.65-23.54 241.49-25.22 244.34-26.9 248.1-26.9L248.1-26.9Q253.44-26.9 256.82-23.63 260.2-20.36 260.6-14.75L260.6-14.75 260.64-12.94Q260.64-6.86 257.25-3.19 253.86 0.49 248.14 0.49 242.43 0.49 239.03-3.17 235.62-6.84 235.62-13.13L235.62-13.13ZM242.68-12.94L242.68-12.94Q242.68-9.18 244.09-7.19 245.51-5.2 248.14-5.2L248.14-5.2Q250.71-5.2 252.15-7.17 253.59-9.13 253.59-13.45L253.59-13.45Q253.59-17.14 252.15-19.17 250.71-21.19 248.1-21.19L248.1-21.19Q245.51-21.19 244.09-19.18 242.68-17.16 242.68-12.94ZM287.42 0L280.29 0Q279.81-0.95 279.59-2.37L279.59-2.37Q277.02 0.49 272.92 0.49L272.92 0.49Q269.04 0.49 266.49-1.76 263.94-4 263.94-7.42L263.94-7.42Q263.94-11.62 267.05-13.87 270.16-16.11 276.05-16.14L276.05-16.14 279.29-16.14 279.29-17.65Q279.29-19.48 278.35-20.58 277.41-21.68 275.39-21.68L275.39-21.68Q273.61-21.68 272.59-20.83 271.58-19.97 271.58-18.48L271.58-18.48 264.52-18.48Q264.52-20.78 265.94-22.73 267.36-24.68 269.94-25.79 272.53-26.9 275.75-26.9L275.75-26.9Q280.64-26.9 283.51-24.45 286.37-22 286.37-17.55L286.37-17.55 286.37-6.1Q286.4-2.34 287.42-0.42L287.42-0.42 287.42 0ZM274.46-4.91L274.46-4.91Q276.02-4.91 277.34-5.6 278.66-6.3 279.29-7.47L279.29-7.47 279.29-12.01 276.66-12.01Q271.36-12.01 271.02-8.35L271.02-8.35 270.99-7.93Q270.99-6.62 271.92-5.76 272.85-4.91 274.46-4.91ZM302.78-5.2L302.78-5.2Q304.73-5.2 305.95-6.27 307.17-7.35 307.22-9.13L307.22-9.13 313.84-9.13Q313.81-6.45 312.37-4.21 310.93-1.98 308.43-0.74 305.93 0.49 302.9 0.49L302.9 0.49Q297.24 0.49 293.96-3.11 290.69-6.71 290.69-13.06L290.69-13.06 290.69-13.53Q290.69-19.63 293.94-23.27 297.19-26.9 302.85-26.9L302.85-26.9Q307.81-26.9 310.8-24.08 313.79-21.26 313.84-16.58L313.84-16.58 307.22-16.58Q307.17-18.63 305.95-19.91 304.73-21.19 302.73-21.19L302.73-21.19Q300.26-21.19 299.01-19.4 297.75-17.6 297.75-13.57L297.75-13.57 297.75-12.84Q297.75-8.76 298.99-6.98 300.24-5.2 302.78-5.2ZM324.75-37.5L324.75-23.54Q327.56-26.9 331.8-26.9L331.8-26.9Q340.4-26.9 340.52-16.92L340.52-16.92 340.52 0 333.46 0 333.46-16.72Q333.46-18.99 332.49-20.08 331.51-21.17 329.24-21.17L329.24-21.17Q326.14-21.17 324.75-18.77L324.75-18.77 324.75 0 317.69 0 317.69-37.5 324.75-37.5ZM353.29-26.42L353.29 0 346.21 0 346.21-26.42 353.29-26.42ZM345.79-33.25L345.79-33.25Q345.79-34.84 346.85-35.86 347.91-36.89 349.75-36.89L349.75-36.89Q351.55-36.89 352.63-35.86 353.7-34.84 353.7-33.25L353.7-33.25Q353.7-31.64 352.61-30.62 351.53-29.59 349.75-29.59 347.96-29.59 346.88-30.62 345.79-31.64 345.79-33.25ZM358.95-26.42L365.59-26.42 365.81-23.36Q368.64-26.9 373.4-26.9L373.4-26.9Q377.6-26.9 379.65-24.44 381.7-21.97 381.75-17.07L381.75-17.07 381.75 0 374.69 0 374.69-16.89Q374.69-19.14 373.72-20.15 372.74-21.17 370.47-21.17L370.47-21.17Q367.49-21.17 366-18.63L366-18.63 366 0 358.95 0 358.95-26.42ZM386.07-13.11L386.07-13.4Q386.07-19.48 388.96-23.19 391.85-26.9 396.76-26.9L396.76-26.9Q401.11-26.9 403.52-23.93L403.52-23.93 403.82-26.42 410.21-26.42 410.21-0.88Q410.21 2.59 408.64 5.15 407.06 7.71 404.21 9.06 401.35 10.4 397.52 10.4L397.52 10.4Q394.61 10.4 391.85 9.24 389.1 8.08 387.68 6.25L387.68 6.25 390.8 1.95Q393.44 4.91 397.2 4.91L397.2 4.91Q400.01 4.91 401.57 3.41 403.13 1.9 403.13-0.85L403.13-0.85 403.13-2.27Q400.69 0.49 396.71 0.49L396.71 0.49Q391.95 0.49 389.01-3.23 386.07-6.96 386.07-13.11L386.07-13.11ZM393.12-12.89L393.12-12.89Q393.12-9.3 394.56-7.26 396-5.22 398.52-5.22L398.52-5.22Q401.74-5.22 403.13-7.64L403.13-7.64 403.13-18.75Q401.72-21.17 398.57-21.17L398.57-21.17Q396.03-21.17 394.58-19.09 393.12-17.02 393.12-12.89Z" opacity="1" transform="matrix(1,0,0,1,0,0)" fill="#ffffff" class="undefined-text-0" data-fill-palette-color="quaternary" id="text-0"></path></svg></g></svg></g><g transform="matrix(1,0,0,1,0,30.890219631160058)"><svg viewBox="0 0 213.15844122715714 10.684950731129822" height="10.684950731129822" width="213.15844122715714"><g transform="matrix(1,0,0,1,0,0)"><svg width="213.15844122715714" viewBox="1.0499999523162842 -38.650001525878906 929.3500366210938 46.45000076293945" height="10.684950731129822" data-palette-color="#ffffff"><path d="M1.05-34.05L1.05-35 16-35Q22.95-35 26.43-33.13 29.9-31.25 29.9-26.8L29.9-26.8Q29.9-19.95 21.65-18.6L21.65-18.6 21.65-18.5Q31.65-17.25 31.65-9.8L31.65-9.8Q31.65-4.35 27.55-2.18 23.45 0 15.75 0L15.75 0 1.05 0 1.05-0.95 4.3-0.95 4.3-34.05 1.05-34.05ZM15.2-17.7L14.05-17.7 14.05-0.95 16.4-0.95Q19.15-0.95 20.25-2.85 21.35-4.75 21.35-8.45L21.35-8.45 21.35-11.1Q21.35-14.4 20-16.05 18.65-17.7 15.2-17.7L15.2-17.7ZM15.65-34.05L14.05-34.05 14.05-18.65 15.35-18.65Q17.95-18.65 18.98-20.23 20-21.8 20-25.05L20-25.05 20-27.4Q20-31.1 19.1-32.58 18.2-34.05 15.65-34.05L15.65-34.05ZM49.6-9.85L49.6-9.85 49.6-14.1Q49.6-18.95 49.08-21.18 48.55-23.4 46.65-23.4L46.65-23.4Q45.55-23.4 44.88-22.78 44.2-22.15 43.9-20.7L43.9-20.7Q43.45-18.45 43.45-13.85L43.45-13.85 43.45-9.95Q43.45-4.5 43.78-3.4 44.1-2.3 44.45-1.6L44.45-1.6Q45-0.4 46.6-0.4L46.6-0.4Q48.55-0.4 49.15-2.65L49.15-2.65Q49.6-4.25 49.6-9.85ZM46.5 0.5Q40.25 0.5 37.05-2.7 33.85-5.9 33.85-11.88 33.85-17.85 37.28-21.08 40.7-24.3 46.9-24.3 53.1-24.3 56.15-21.33 59.2-18.35 59.2-12.25L59.2-12.25Q59.2 0.5 46.5 0.5L46.5 0.5ZM76.75-9.85L76.75-9.85 76.75-14.1Q76.75-18.95 76.23-21.18 75.7-23.4 73.8-23.4L73.8-23.4Q72.7-23.4 72.03-22.78 71.35-22.15 71.05-20.7L71.05-20.7Q70.6-18.45 70.6-13.85L70.6-13.85 70.6-9.95Q70.6-4.5 70.93-3.4 71.25-2.3 71.6-1.6L71.6-1.6Q72.15-0.4 73.75-0.4L73.75-0.4Q75.7-0.4 76.3-2.65L76.3-2.65Q76.75-4.25 76.75-9.85ZM73.65 0.5Q67.4 0.5 64.2-2.7 61-5.9 61-11.88 61-17.85 64.43-21.08 67.85-24.3 74.05-24.3 80.25-24.3 83.3-21.33 86.35-18.35 86.35-12.25L86.35-12.25Q86.35 0.5 73.65 0.5L73.65 0.5ZM89.5 0.5L88.9 0.5 88.9-8.45 89.5-8.45Q90.8-4.1 93-2.35 95.2-0.6 98.5-0.6L98.5-0.6Q103.6-0.6 103.6-3.85L103.6-3.85Q103.6-5.25 102.35-5.95L102.35-5.95Q100.4-7.05 97.35-7.65L97.35-7.65Q93.95-8.55 91.65-10.05L91.65-10.05Q88.9-11.85 88.9-15.75 88.9-19.65 91.3-21.98 93.7-24.3 97.7-24.3L97.7-24.3Q100.15-24.3 102.75-23.15L102.75-23.15Q103.7-22.75 104.2-22.75 104.7-22.75 105.05-23.1 105.4-23.45 105.9-24.4L105.9-24.4 106.45-24.4 106.45-16.75 105.85-16.75Q103.3-23.25 97.95-23.25L97.95-23.25Q95.6-23.25 94.45-22.43 93.3-21.6 93.3-20.35L93.3-20.35Q93.3-19.6 93.65-19.18 94-18.75 94.2-18.55 94.4-18.35 94.85-18.13 95.3-17.9 95.6-17.78 95.9-17.65 96.53-17.45 97.15-17.25 97.45-17.2L97.45-17.2Q100.85-16.35 102.35-15.73 103.85-15.1 105.2-14.2L105.2-14.2Q107.95-12.3 107.95-8.08 107.95-3.85 105.45-1.68 102.95 0.5 98.6 0.5L98.6 0.5Q95.5 0.5 92.6-0.95L92.6-0.95Q92-1.35 91.65-1.35L91.65-1.35Q90.55-1.35 89.5 0.5L89.5 0.5ZM111.45-7.15L111.45-7.15 111.45-22.9 108.7-22.9 108.7-23.8 111.45-23.8 111.45-30.25 120.75-32.55 120.75-23.8 127.25-23.8 127.25-22.9 120.75-22.9 120.75-6.05Q120.75-3.7 121.23-2.6 121.7-1.5 123.2-1.5 124.7-1.5 125.83-3 126.95-4.5 127.3-7.1L127.3-7.1 128.15-7Q127.75-3.55 125.95-1.53 124.15 0.5 120 0.5 115.85 0.5 113.65-1.15 111.45-2.8 111.45-7.15ZM150.2-34.2L157-18.55 164.1-34.2 159.05-34.2 159.05-35 168.9-35 168.9-34.2 165.6-34.2 158.05-17.5 158.05-0.95 161.1-0.95 161.1 0 145.25 0 145.25-0.95 148.3-0.95 148.3-16.55 139.8-34.2 137.45-34.2 137.45-35 153.45-35 153.45-34.2 150.2-34.2ZM181.1-9.85L181.1-9.85 181.1-14.1Q181.1-18.95 180.58-21.18 180.05-23.4 178.15-23.4L178.15-23.4Q177.05-23.4 176.38-22.78 175.7-22.15 175.4-20.7L175.4-20.7Q174.95-18.45 174.95-13.85L174.95-13.85 174.95-9.95Q174.95-4.5 175.28-3.4 175.6-2.3 175.95-1.6L175.95-1.6Q176.5-0.4 178.1-0.4L178.1-0.4Q180.05-0.4 180.65-2.65L180.65-2.65Q181.1-4.25 181.1-9.85ZM178 0.5Q171.75 0.5 168.55-2.7 165.35-5.9 165.35-11.88 165.35-17.85 168.78-21.08 172.2-24.3 178.4-24.3 184.6-24.3 187.65-21.33 190.7-18.35 190.7-12.25L190.7-12.25Q190.7 0.5 178 0.5L178 0.5ZM221.35-0.9L221.35 0 209.95 0 209.4-3.65Q208.6-1.65 207.03-0.58 205.45 0.5 202.35 0.5L202.35 0.5Q194.6 0.5 194.6-7.85L194.6-7.85 194.6-22.9 191.8-22.9 191.8-23.8 203.9-23.8 203.9-6.65Q203.9-3.65 204.33-2.7 204.75-1.75 206.03-1.75 207.3-1.75 208.3-3.3 209.3-4.85 209.3-7.6L209.3-7.6 209.3-22.9 207-22.9 207-23.8 218.6-23.8 218.6-0.9 221.35-0.9ZM239.05-22.4L239.05-22.4Q237.2-22.4 235.8-20 234.4-17.6 234.4-14.3L234.4-14.3 234.4-0.9 237.95-0.9 237.95 0 222.35 0 222.35-0.9 225.1-0.9 225.1-22.9 222.35-22.9 222.35-23.8 234.4-23.8 234.4-19Q235.05-21.55 236.9-22.93 238.75-24.3 241.1-24.3 243.45-24.3 244.93-22.98 246.4-21.65 246.4-19.23 246.4-16.8 245.3-15.5 244.2-14.2 241.93-14.2 239.65-14.2 238.58-15.7 237.5-17.2 238.3-19.85L238.3-19.85 240.1-19.85Q241.35-22.4 239.05-22.4ZM275.6-34.55L275.6-34.55Q267.85-34.55 267.85-19.6L267.85-19.6 267.85-15.65Q267.85-8.55 269.9-4.53 271.95-0.5 275.95-0.5L275.95-0.5Q281.45-0.5 286.05-11.2L286.05-11.2 286.95-11.2 286.6-0.05 286.05-0.05Q285.75-0.6 285.5-0.83 285.25-1.05 284.78-1.05 284.3-1.05 281.15-0.28 278 0.5 274.75 0.5L274.75 0.5Q266.6 0.5 262.13-3.9 257.65-8.3 257.65-17.13 257.65-25.95 262.33-30.75 267-35.55 274.9-35.55L274.9-35.55Q277.95-35.55 280.88-34.77 283.8-34 284.3-34 284.8-34 285.05-34.23 285.3-34.45 285.6-35L285.6-35 286.15-35 286.55-24.15 285.65-24.15Q283.4-29.2 281.03-31.88 278.65-34.55 275.6-34.55ZM306.25-9.85L306.25-9.85 306.25-14.1Q306.25-18.95 305.73-21.18 305.2-23.4 303.3-23.4L303.3-23.4Q302.2-23.4 301.53-22.78 300.85-22.15 300.55-20.7L300.55-20.7Q300.1-18.45 300.1-13.85L300.1-13.85 300.1-9.95Q300.1-4.5 300.43-3.4 300.75-2.3 301.1-1.6L301.1-1.6Q301.65-0.4 303.25-0.4L303.25-0.4Q305.2-0.4 305.8-2.65L305.8-2.65Q306.25-4.25 306.25-9.85ZM303.15 0.5Q296.9 0.5 293.7-2.7 290.5-5.9 290.5-11.88 290.5-17.85 293.93-21.08 297.35-24.3 303.55-24.3 309.75-24.3 312.8-21.33 315.85-18.35 315.85-12.25L315.85-12.25Q315.85 0.5 303.15 0.5L303.15 0.5ZM317.35-22.9L317.35-23.8 329.4-23.8 329.4-19.2Q330.2-21.5 331.85-22.9 333.5-24.3 336.85-24.3L336.85-24.3Q344.6-24.3 344.6-15.95L344.6-15.95 344.6-0.9 347.4-0.9 347.4 0 333.25 0 333.25-0.9 335.3-0.9 335.3-17.15Q335.3-20.15 334.9-21.03 334.5-21.9 333.45-21.9L333.45-21.9Q331.85-21.9 330.63-19.8 329.4-17.7 329.4-14.7L329.4-14.7 329.4-0.9 331.55-0.9 331.55 0 317.35 0 317.35-0.9 320.1-0.9 320.1-22.9 317.35-22.9ZM363.2-37.8L363.2-37.8Q361.3-37.8 360.7-36.38 360.1-34.95 360.1-31.8L360.1-31.8 360.1-23.8 366.7-23.8 366.7-22.9 360.1-22.9 360.1-0.9 366.2-0.9 366.2 0 348.05 0 348.05-0.9 350.8-0.9 350.8-22.9 347.9-22.9 347.9-23.8 350.8-23.8 350.8-24Q350.8-31.2 353.55-34.93 356.3-38.65 362.75-38.65L362.75-38.65Q367-38.65 368.85-36.98 370.7-35.3 370.7-33.1 370.7-30.9 369.55-29.8 368.4-28.7 366.5-28.7 364.6-28.7 363.57-29.68 362.55-30.65 362.55-31.93 362.55-33.2 362.85-34.4L362.85-34.4 364.75-34.4Q365.75-37.8 363.2-37.8ZM374.55-27.25Q371.9-27.25 370.77-28.6 369.65-29.95 369.65-31.95 369.65-33.95 370.88-35.25 372.1-36.55 374.6-36.55 377.1-36.55 378.4-35.38 379.7-34.2 379.7-32.02 379.7-29.85 378.45-28.55 377.2-27.25 374.55-27.25ZM367-22.9L367-23.8 379.25-23.8 379.25-0.9 382.05-0.9 382.05 0 367.2 0 367.2-0.9 369.95-0.9 369.95-22.9 367-22.9ZM393.2-10.35Q393.2-5.1 393.75-3.38 394.3-1.65 395.78-1.65 397.25-1.65 398.32-2.95 399.4-4.25 399.4-6.8L399.4-6.8 399.4-17.7Q399.4-19.85 398.55-21.35 397.7-22.85 396.05-22.85 394.4-22.85 393.8-20.65 393.2-18.45 393.2-12.95L393.2-12.95 393.2-10.35ZM411.15 0L400.05 0 399.5-3.5Q397.8 0.5 392.6 0.5L392.6 0.5Q388.3 0.5 385.93-2.6 383.55-5.7 383.55-11.85L383.55-11.85Q383.55-24.3 393.45-24.3L393.45-24.3Q397.85-24.3 399.25-21.85L399.25-21.85 399.25-36.6 396.2-36.6 396.2-37.5 408.7-37.5 408.7-0.9 411.15-0.9 411.15 0ZM425.6 0.5Q419.15 0.5 415.93-2.83 412.7-6.15 412.7-12.08 412.7-18 416.32-21.15 419.95-24.3 425.55-24.3L425.55-24.3Q436.9-24.3 436.45-12.9L436.45-12.9 422.35-12.9 422.35-10.95Q422.35-6.05 423.6-3.55 424.85-1.05 427.95-1.05L427.95-1.05Q433.75-1.05 435.55-7.25L435.55-7.25 436.45-7.1Q435.5-3.5 433.02-1.5 430.55 0.5 425.6 0.5L425.6 0.5ZM422.4-16.35L422.4-13.9 427.55-13.9 427.55-16.35Q427.55-20.4 427.07-21.88 426.6-23.35 425.18-23.35 423.75-23.35 423.07-21.78 422.4-20.2 422.4-16.35L422.4-16.35ZM438.35-22.9L438.35-23.8 450.4-23.8 450.4-19.2Q451.2-21.5 452.85-22.9 454.5-24.3 457.85-24.3L457.85-24.3Q465.6-24.3 465.6-15.95L465.6-15.95 465.6-0.9 468.4-0.9 468.4 0 454.25 0 454.25-0.9 456.3-0.9 456.3-17.15Q456.3-20.15 455.9-21.03 455.5-21.9 454.45-21.9L454.45-21.9Q452.85-21.9 451.63-19.8 450.4-17.7 450.4-14.7L450.4-14.7 450.4-0.9 452.55-0.9 452.55 0 438.35 0 438.35-0.9 441.1-0.9 441.1-22.9 438.35-22.9ZM483.05-23.4L483.05-23.4Q480.85-23.4 479.9-21 478.95-18.6 478.95-13.05L478.95-13.05 478.95-10.45Q478.95-5.5 480.05-3.35 481.15-1.2 484.1-1.2 487.05-1.2 488.8-3.2 490.55-5.2 491.05-7.75L491.05-7.75 491.95-7.65Q491-3.35 488.45-1.45L488.45-1.45Q485.85 0.5 481.3 0.5L481.3 0.5Q475.5 0.5 472.4-2.63 469.3-5.75 469.3-11.78 469.3-17.8 472.82-21.05 476.35-24.3 482.65-24.3L482.65-24.3Q487.1-24.3 489.45-22.58 491.8-20.85 491.8-18.25 491.8-15.65 490.68-14.45 489.55-13.25 487.57-13.25 485.6-13.25 484.4-14.3 483.2-15.35 483.2-17.4L483.2-17.4Q483.2-18.3 483.45-19.2L483.45-19.2 485.1-19.2Q485.45-20.2 485.45-21L485.45-21Q485.45-23.4 483.05-23.4ZM506.35 0.5Q499.9 0.5 496.68-2.83 493.45-6.15 493.45-12.08 493.45-18 497.07-21.15 500.7-24.3 506.3-24.3L506.3-24.3Q517.65-24.3 517.2-12.9L517.2-12.9 503.1-12.9 503.1-10.95Q503.1-6.05 504.35-3.55 505.6-1.05 508.7-1.05L508.7-1.05Q514.5-1.05 516.3-7.25L516.3-7.25 517.2-7.1Q516.25-3.5 513.77-1.5 511.3 0.5 506.35 0.5L506.35 0.5ZM503.15-16.35L503.15-13.9 508.3-13.9 508.3-16.35Q508.3-20.4 507.82-21.88 507.35-23.35 505.93-23.35 504.5-23.35 503.82-21.78 503.15-20.2 503.15-16.35L503.15-16.35ZM522.8 7.8L522.8 7.8 522.2 7.05Q525.3 4.4 526.25 2.93 527.2 1.45 527.2-0.33 527.2-2.1 525.65-2.3L525.65-2.3 523.25-0.15Q522.1-0.55 521.17-1.58 520.25-2.6 520.25-4.23 520.25-5.85 521.42-7 522.6-8.15 524.67-8.15 526.75-8.15 528.05-6.55 529.35-4.95 529.35-2.3 529.35 0.35 527.8 2.8 526.25 5.25 522.8 7.8ZM541.65-34.05L541.65-35 557.25-35 557.25-34.05 554.35-34.05 554.35-18.55 564.3-18.55 564.3-34.05 561.35-34.05 561.35-35 577-35 577-34.05 574.05-34.05 574.05-0.95 577-0.95 577 0 561.35 0 561.35-0.95 564.3-0.95 564.3-17.25 554.35-17.25 554.35-0.95 557.25-0.95 557.25 0 541.65 0 541.65-0.95 544.6-0.95 544.6-34.05 541.65-34.05ZM594.7-9.85L594.7-9.85 594.7-14.1Q594.7-18.95 594.18-21.18 593.65-23.4 591.75-23.4L591.75-23.4Q590.65-23.4 589.98-22.78 589.3-22.15 589-20.7L589-20.7Q588.55-18.45 588.55-13.85L588.55-13.85 588.55-9.95Q588.55-4.5 588.88-3.4 589.2-2.3 589.55-1.6L589.55-1.6Q590.1-0.4 591.7-0.4L591.7-0.4Q593.65-0.4 594.25-2.65L594.25-2.65Q594.7-4.25 594.7-9.85ZM591.6 0.5Q585.35 0.5 582.15-2.7 578.95-5.9 578.95-11.88 578.95-17.85 582.38-21.08 585.8-24.3 592-24.3 598.2-24.3 601.25-21.33 604.3-18.35 604.3-12.25L604.3-12.25Q604.3 0.5 591.6 0.5L591.6 0.5ZM605.8-22.9L605.8-23.8 617.85-23.8 617.85-19.2Q618.65-21.5 620.3-22.9 621.95-24.3 625.3-24.3L625.3-24.3Q633.05-24.3 633.05-15.95L633.05-15.95 633.05-0.9 635.85-0.9 635.85 0 621.7 0 621.7-0.9 623.75-0.9 623.75-17.15Q623.75-20.15 623.35-21.03 622.95-21.9 621.9-21.9L621.9-21.9Q620.3-21.9 619.08-19.8 617.85-17.7 617.85-14.7L617.85-14.7 617.85-0.9 620-0.9 620 0 605.8 0 605.8-0.9 608.55-0.9 608.55-22.9 605.8-22.9ZM649.65 0.5Q643.2 0.5 639.98-2.83 636.75-6.15 636.75-12.08 636.75-18 640.38-21.15 644-24.3 649.6-24.3L649.6-24.3Q660.95-24.3 660.5-12.9L660.5-12.9 646.4-12.9 646.4-10.95Q646.4-6.05 647.65-3.55 648.9-1.05 652-1.05L652-1.05Q657.8-1.05 659.6-7.25L659.6-7.25 660.5-7.1Q659.55-3.5 657.08-1.5 654.6 0.5 649.65 0.5L649.65 0.5ZM646.45-16.35L646.45-13.9 651.6-13.9 651.6-16.35Q651.6-20.4 651.13-21.88 650.65-23.35 649.23-23.35 647.8-23.35 647.13-21.78 646.45-20.2 646.45-16.35L646.45-16.35ZM683.85-34.2L690.65-18.55 697.75-34.2 692.7-34.2 692.7-35 702.55-35 702.55-34.2 699.25-34.2 691.7-17.5 691.7-0.95 694.75-0.95 694.75 0 678.9 0 678.9-0.95 681.95-0.95 681.95-16.55 673.45-34.2 671.1-34.2 671.1-35 687.1-35 687.1-34.2 683.85-34.2ZM714.75-9.85L714.75-9.85 714.75-14.1Q714.75-18.95 714.22-21.18 713.7-23.4 711.8-23.4L711.8-23.4Q710.7-23.4 710.02-22.78 709.35-22.15 709.05-20.7L709.05-20.7Q708.6-18.45 708.6-13.85L708.6-13.85 708.6-9.95Q708.6-4.5 708.92-3.4 709.25-2.3 709.6-1.6L709.6-1.6Q710.15-0.4 711.75-0.4L711.75-0.4Q713.7-0.4 714.3-2.65L714.3-2.65Q714.75-4.25 714.75-9.85ZM711.65 0.5Q705.4 0.5 702.2-2.7 699-5.9 699-11.88 699-17.85 702.42-21.08 705.85-24.3 712.05-24.3 718.25-24.3 721.3-21.33 724.35-18.35 724.35-12.25L724.35-12.25Q724.35 0.5 711.65 0.5L711.65 0.5ZM755-0.9L755 0 743.6 0 743.05-3.65Q742.25-1.65 740.67-0.58 739.1 0.5 736 0.5L736 0.5Q728.25 0.5 728.25-7.85L728.25-7.85 728.25-22.9 725.45-22.9 725.45-23.8 737.55-23.8 737.55-6.65Q737.55-3.65 737.97-2.7 738.4-1.75 739.67-1.75 740.95-1.75 741.95-3.3 742.95-4.85 742.95-7.6L742.95-7.6 742.95-22.9 740.65-22.9 740.65-23.8 752.25-23.8 752.25-0.9 755-0.9ZM772.7-22.4L772.7-22.4Q770.85-22.4 769.45-20 768.05-17.6 768.05-14.3L768.05-14.3 768.05-0.9 771.6-0.9 771.6 0 756 0 756-0.9 758.75-0.9 758.75-22.9 756-22.9 756-23.8 768.05-23.8 768.05-19Q768.7-21.55 770.55-22.93 772.4-24.3 774.75-24.3 777.1-24.3 778.57-22.98 780.05-21.65 780.05-19.23 780.05-16.8 778.95-15.5 777.85-14.2 775.57-14.2 773.3-14.2 772.22-15.7 771.15-17.2 771.95-19.85L771.95-19.85 773.75-19.85Q775-22.4 772.7-22.4ZM805.5-0.55L805.5-0.55Q808-0.55 809.92-1.9 811.85-3.25 811.85-5.98 811.85-8.7 809.77-10.15 807.7-11.6 803.87-12.68 800.05-13.75 798.32-14.55 796.6-15.35 795.05-16.65L795.05-16.65Q791.95-19.25 791.95-24.7L791.95-24.7Q791.95-29.15 795.12-32.35 798.3-35.55 803.8-35.55L803.8-35.55Q806.45-35.55 809.32-34.77 812.2-34 812.9-34 813.6-34 814.15-35L814.15-35 814.7-35 815.05-24.9 814.25-24.9Q811.85-29.25 809.22-31.88 806.6-34.5 803.52-34.5 800.45-34.5 798.75-33.08 797.05-31.65 797.05-29.28 797.05-26.9 799.07-25.63 801.1-24.35 804.05-23.55 807-22.75 807.92-22.45 808.85-22.15 810.22-21.63 811.6-21.1 812.47-20.53 813.35-19.95 814.32-19.07 815.3-18.2 815.85-17.15L815.85-17.15Q817.2-14.75 817.2-11.45L817.2-11.45Q817.2-6.05 813.82-2.78 810.45 0.5 804.95 0.5L804.95 0.5Q802.1 0.5 798.42-0.25 794.75-1 794.35-1L794.35-1Q793.65-1 793 0.5L793 0.5 792.3 0.5 791.8-11.4 792.65-11.4Q794.85-7.05 798.27-3.8 801.7-0.55 805.5-0.55ZM850 0L836.1 0 836.1-0.9 838.4-0.9 832.75-12.5 831.8-12.25 831.8-0.9 834.1-0.9 834.1 0 819.75 0 819.75-0.9 822.5-0.9 822.5-36.6 819.55-36.6 819.55-37.5 831.8-37.5 831.8-13.25 832.6-13.55 843.85-22.9 839.15-22.9 839.15-23.8 849-23.8 849-22.9 845.5-22.9 839.55-17.85 848.2-0.9 850-0.9 850 0ZM858.1-27.25Q855.45-27.25 854.32-28.6 853.2-29.95 853.2-31.95 853.2-33.95 854.42-35.25 855.65-36.55 858.15-36.55 860.65-36.55 861.95-35.38 863.25-34.2 863.25-32.02 863.25-29.85 862-28.55 860.75-27.25 858.1-27.25ZM850.55-22.9L850.55-23.8 862.8-23.8 862.8-0.9 865.6-0.9 865.6 0 850.75 0 850.75-0.9 853.5-0.9 853.5-22.9 850.55-22.9ZM866.4-36.6L866.4-37.5 878.65-37.5 878.65-0.9 881.45-0.9 881.45 0 866.6 0 866.6-0.9 869.35-0.9 869.35-36.6 866.4-36.6ZM882.2-36.6L882.2-37.5 894.45-37.5 894.45-0.9 897.25-0.9 897.25 0 882.4 0 882.4-0.9 885.15-0.9 885.15-36.6 882.2-36.6ZM899.95 0.5L899.35 0.5 899.35-8.45 899.95-8.45Q901.25-4.1 903.45-2.35 905.65-0.6 908.95-0.6L908.95-0.6Q914.05-0.6 914.05-3.85L914.05-3.85Q914.05-5.25 912.8-5.95L912.8-5.95Q910.85-7.05 907.8-7.65L907.8-7.65Q904.4-8.55 902.1-10.05L902.1-10.05Q899.35-11.85 899.35-15.75 899.35-19.65 901.75-21.98 904.15-24.3 908.15-24.3L908.15-24.3Q910.6-24.3 913.2-23.15L913.2-23.15Q914.15-22.75 914.65-22.75 915.15-22.75 915.5-23.1 915.85-23.45 916.35-24.4L916.35-24.4 916.9-24.4 916.9-16.75 916.3-16.75Q913.75-23.25 908.4-23.25L908.4-23.25Q906.05-23.25 904.9-22.43 903.75-21.6 903.75-20.35L903.75-20.35Q903.75-19.6 904.1-19.18 904.45-18.75 904.65-18.55 904.85-18.35 905.3-18.13 905.75-17.9 906.05-17.78 906.35-17.65 906.97-17.45 907.6-17.25 907.9-17.2L907.9-17.2Q911.3-16.35 912.8-15.73 914.3-15.1 915.65-14.2L915.65-14.2Q918.4-12.3 918.4-8.08 918.4-3.85 915.9-1.68 913.4 0.5 909.05 0.5L909.05 0.5Q905.95 0.5 903.05-0.95L903.05-0.95Q902.45-1.35 902.1-1.35L902.1-1.35Q901-1.35 899.95 0.5L899.95 0.5ZM925.97 0.5Q923.8 0.5 922.72-0.78 921.65-2.05 921.65-3.88 921.65-5.7 922.77-6.95 923.9-8.2 925.95-8.2 928-8.2 929.2-7.15 930.4-6.1 930.4-4 930.4-1.9 929.27-0.7 928.15 0.5 925.97 0.5Z" opacity="1" transform="matrix(1,0,0,1,0,0)" fill="#ffffff" class="undefined-text-1" data-fill-palette-color="quaternary" id="text-1"></path></svg></g></svg></g></svg></g></svg></g><g transform="matrix(1,0,0,1,76.64535931227792,0)"><svg viewBox="0 0 59.867722602601305 57.45688544068462" height="57.45688544068462" width="59.867722602601305"><g><svg xmlns="http://www.w3.org/2000/svg" xmlns:xlink="http://www.w3.org/1999/xlink" version="1.1" x="0" y="0" viewBox="5.690481662750244 6.2254743576049805 89.92096710205078 86.2999038696289" enable-background="new 0 0 100 100" xml:space="preserve" height="57.45688544068462" width="59.867722602601305" class="icon-icon-0" data-fill-palette-color="quaternary" id="icon-0"><path d="M93.549 38.722c-3.472-1.292-4.366 3.032-5.432 5.276-1.717 3.324-4.064 6.431-6.963 8.814-3.301 2.668-7.04 4.889-11.214 5.872 10.45-10.462 12.049-25.193 6.687-38.528-1.969-4.893-5.285-9.352-9.247-12.808-1.796-1.57-4.851-1.745-5.573 1.117-0.552 2.186 1.751 4.071 2.884 5.712 4.276 6.662 5.938 15.402 3.631 23.083C64.585 23.334 52.94 14.409 39.007 12.306c-5.186-0.645-10.646-0.466-15.636 1.233-2.12 0.727-4.611 2.21-3.188 4.891 1.256 2.363 3.735 1.391 5.801 1.218 8.298-0.667 17.176 2.136 22.973 8.303-14.285-3.825-27.851 2.174-36.71 13.475-3.257 4.155-5.446 9.25-6.469 14.412-0.461 2.337 0.915 5.073 3.754 4.269 2.169-0.614 2.651-3.554 3.505-5.354 3.624-7.023 10.375-12.848 18.175-14.686-10.456 10.454-12.046 25.199-6.686 38.53 1.966 4.888 5.283 9.358 9.248 12.807 1.795 1.568 4.851 1.744 5.573-1.117 0.554-2.188-1.752-4.069-2.882-5.714-4.275-6.655-5.947-15.406-3.633-23.082 3.734 13.926 15.383 22.851 29.315 24.955 5.186 0.644 10.646 0.466 15.635-1.234 2.119-0.724 4.612-2.21 3.187-4.89-1.254-2.362-3.732-1.39-5.799-1.219-8.305 0.666-17.167-2.137-22.973-8.302 9.094 2.434 18.479 0.99 26.39-3.968 4.022-2.522 7.4-5.783 10.32-9.509C90.875 54.815 99.501 40.937 93.549 38.722 91.941 38.125 94.994 39.259 93.549 38.722z" fill="#ffffff" data-fill-palette-color="quaternary"></path></svg></g></svg></g><g></g></svg></g></svg></g></svg></g></svg></g><defs></defs></svg><rect width="342.85155851775386" height="342.85155851775386" fill="none" stroke="none" visibility="hidden"></rect></g></svg></g></svg>